<svg width="26" height="26" viewBox="0 0 26 26" fill="none" xmlns="http://www.w3.org/2000/svg">
<path d="M25.7471 10.4539H24.7V10.4H13V15.6H20.347C19.2751 18.627 16.3949 20.8 13 20.8C8.69245 20.8 5.2 17.3075 5.2 13C5.2 8.69245 8.69245 5.2 13 5.2C14.9883 5.2 16.7973 5.9501 18.1746 7.17535L21.8517 3.4983C19.5299 1.33445 16.4242 0 13 0C5.82075 0 0 5.82075 0 13C0 20.1792 5.82075 26 13 26C20.1792 26 26 20.1792 26 13C26 12.1283 25.9103 11.2775 25.7471 10.4539Z" fill="#FFC107"/>
<path d="M1.50317 6.94915L5.77432 10.0815C6.93002 7.2202 9.72892 5.2 13.0043 5.2C14.9926 5.2 16.8016 5.9501 18.1789 7.17535L21.856 3.4983C19.5342 1.33445 16.4285 0 13.0043 0C8.01097 0 3.68067 2.81905 1.50317 6.94915Z" fill="#FF3D00"/>
<path d="M13.0002 25.9994C16.3581 25.9994 19.4092 24.7144 21.7161 22.6246L17.6926 19.2199C16.3436 20.2459 14.6951 20.8008 13.0002 20.7994C9.61895 20.7994 6.7479 18.6434 5.6663 15.6345L1.427 18.9008C3.5785 23.1108 7.9478 25.9994 13.0002 25.9994Z" fill="#4CAF50"/>
<path d="M25.7471 10.4553H24.7V10.4014H13V15.6014H20.347C19.8342 17.042 18.9107 18.3009 17.6904 19.2225L17.6923 19.2212L21.7158 22.6259C21.4311 22.8846 26 19.5014 26 13.0014C26 12.1297 25.9103 11.2789 25.7471 10.4553Z" fill="#1976D2"/>
</svg>
