<svg width="22" height="23" viewBox="0 0 22 23" fill="none" xmlns="http://www.w3.org/2000/svg">
<path d="M21.3172 7.54922C19.3882 8.77997 18.4232 10.2643 18.4232 11.9961C18.4232 14.0723 19.6162 15.6624 22 16.7734C21.3603 18.4483 20.4329 19.9027 19.2178 21.1414C18.0037 22.3791 16.8959 23 15.8933 23C15.4196 23 14.7755 22.8573 13.9565 22.5778L13.5659 22.44C12.7635 22.1605 12.0574 22.0178 11.441 22.0178C10.86 22.0178 10.2237 22.1276 9.53197 22.3472L9.03949 22.5069L8.41974 22.7365C7.93279 22.9122 7.43699 23 6.94009 23C5.76699 23 4.47437 22.1296 3.05891 20.3888C1.01927 17.8953 0 15.1783 0 12.2367C0 10.1455 0.634136 8.46355 1.90794 7.18588C3.18064 5.90821 4.86614 5.26938 6.96333 5.26938C7.74908 5.26938 8.4795 5.39914 9.16344 5.65667L9.63157 5.82836L10.1241 6.01102C10.5623 6.17772 10.9164 6.26057 11.1865 6.26057C11.5296 6.26057 11.9147 6.1907 12.3374 6.04496L12.9793 5.81538L13.4618 5.65567C14.2288 5.40613 15.0776 5.28036 16.0039 5.28036C18.2085 5.28036 19.977 6.03698 21.3161 7.55021L21.3172 7.54922ZM16.1102 0C16.1323 0.266513 16.1467 0.472138 16.1467 0.615875C16.1467 1.93047 15.6155 3.08437 14.5553 4.07656C13.495 5.06874 12.2589 5.56384 10.8512 5.56384C10.8168 5.35279 10.7953 5.14019 10.787 4.927C10.787 3.80904 11.2794 2.76096 12.2666 1.77975C13.2516 0.798542 14.3937 0.222594 15.6929 0.0568963C15.7837 0.0419236 15.9253 0.0239563 16.1102 0Z" fill="black"/>
</svg>
